<mxfile host="app.diagrams.net" modified="2024-03-25T17:59:00.623Z" agent="Mozilla/5.0 (Windows NT 10.0; Win64; x64) AppleWebKit/537.36 (KHTML, like Gecko) Chrome/122.0.0.0 Safari/537.36" etag="eU-qLfd9EUVgWptYQ9GY" version="24.1.0" type="device">
  <diagram name="Page-1" id="GHCCZwFHGZ2dIF8Eq7Bc">
    <mxGraphModel dx="1677" dy="881" grid="1" gridSize="10" guides="1" tooltips="1" connect="1" arrows="1" fold="1" page="1" pageScale="1" pageWidth="850" pageHeight="1100" math="0" shadow="0">
      <root>
        <mxCell id="0" />
        <mxCell id="1" parent="0" />
        <mxCell id="qtLm0A7_fBKDtyC4aUwC-1" value="User" style="swimlane;whiteSpace=wrap;html=1;" parent="1" vertex="1">
          <mxGeometry x="120" y="80" width="180" height="810" as="geometry" />
        </mxCell>
        <mxCell id="qtLm0A7_fBKDtyC4aUwC-4" value="" style="ellipse;whiteSpace=wrap;html=1;aspect=fixed;" parent="qtLm0A7_fBKDtyC4aUwC-1" vertex="1">
          <mxGeometry x="10" y="67.5" width="25" height="25" as="geometry" />
        </mxCell>
        <mxCell id="qtLm0A7_fBKDtyC4aUwC-6" value="Input login info" style="rounded=1;whiteSpace=wrap;html=1;" parent="qtLm0A7_fBKDtyC4aUwC-1" vertex="1">
          <mxGeometry x="60" y="60" width="110" height="40" as="geometry" />
        </mxCell>
        <mxCell id="qtLm0A7_fBKDtyC4aUwC-8" value="" style="endArrow=classic;html=1;rounded=0;exitX=1;exitY=0.5;exitDx=0;exitDy=0;entryX=0;entryY=0.5;entryDx=0;entryDy=0;" parent="qtLm0A7_fBKDtyC4aUwC-1" source="qtLm0A7_fBKDtyC4aUwC-4" target="qtLm0A7_fBKDtyC4aUwC-6" edge="1">
          <mxGeometry width="50" height="50" relative="1" as="geometry">
            <mxPoint x="280" y="260" as="sourcePoint" />
            <mxPoint x="330" y="210" as="targetPoint" />
          </mxGeometry>
        </mxCell>
        <mxCell id="qtLm0A7_fBKDtyC4aUwC-16" value="Wrong credentials" style="text;html=1;strokeColor=none;fillColor=none;align=center;verticalAlign=middle;whiteSpace=wrap;rounded=0;" parent="qtLm0A7_fBKDtyC4aUwC-1" vertex="1">
          <mxGeometry x="60" y="130" width="60" height="30" as="geometry" />
        </mxCell>
        <mxCell id="DOATOJcdpVP5VAB-xwLo-117" value="Choses to reserve a car" style="rounded=1;whiteSpace=wrap;html=1;" parent="qtLm0A7_fBKDtyC4aUwC-1" vertex="1">
          <mxGeometry x="45" y="400" width="90" height="35" as="geometry" />
        </mxCell>
        <mxCell id="J1SGvVj9FcL3rWodPqAi-3" style="edgeStyle=orthogonalEdgeStyle;rounded=0;orthogonalLoop=1;jettySize=auto;html=1;exitX=0.5;exitY=1;exitDx=0;exitDy=0;entryX=0.5;entryY=0;entryDx=0;entryDy=0;" edge="1" parent="qtLm0A7_fBKDtyC4aUwC-1" source="DOATOJcdpVP5VAB-xwLo-144" target="J1SGvVj9FcL3rWodPqAi-1">
          <mxGeometry relative="1" as="geometry" />
        </mxCell>
        <mxCell id="DOATOJcdpVP5VAB-xwLo-144" value="Receive confirmation" style="rounded=1;whiteSpace=wrap;html=1;" parent="qtLm0A7_fBKDtyC4aUwC-1" vertex="1">
          <mxGeometry x="45" y="710" width="80" height="40" as="geometry" />
        </mxCell>
        <mxCell id="J1SGvVj9FcL3rWodPqAi-1" value="" style="ellipse;whiteSpace=wrap;html=1;aspect=fixed;" vertex="1" parent="qtLm0A7_fBKDtyC4aUwC-1">
          <mxGeometry x="72.5" y="770" width="25" height="25" as="geometry" />
        </mxCell>
        <mxCell id="J1SGvVj9FcL3rWodPqAi-2" value="" style="ellipse;whiteSpace=wrap;html=1;aspect=fixed;" vertex="1" parent="qtLm0A7_fBKDtyC4aUwC-1">
          <mxGeometry x="76.25" y="773.75" width="17.5" height="17.5" as="geometry" />
        </mxCell>
        <mxCell id="qtLm0A7_fBKDtyC4aUwC-2" value="Car Rental Website" style="swimlane;whiteSpace=wrap;html=1;" parent="1" vertex="1">
          <mxGeometry x="300" y="80" width="300" height="810" as="geometry" />
        </mxCell>
        <mxCell id="DOATOJcdpVP5VAB-xwLo-86" style="edgeStyle=orthogonalEdgeStyle;rounded=0;orthogonalLoop=1;jettySize=auto;html=1;exitX=0.5;exitY=1;exitDx=0;exitDy=0;entryX=0.5;entryY=0;entryDx=0;entryDy=0;" parent="qtLm0A7_fBKDtyC4aUwC-2" source="qtLm0A7_fBKDtyC4aUwC-7" target="qtLm0A7_fBKDtyC4aUwC-10" edge="1">
          <mxGeometry relative="1" as="geometry" />
        </mxCell>
        <mxCell id="qtLm0A7_fBKDtyC4aUwC-7" value="Login form" style="rounded=1;whiteSpace=wrap;html=1;" parent="qtLm0A7_fBKDtyC4aUwC-2" vertex="1">
          <mxGeometry x="45" y="62.5" width="110" height="35" as="geometry" />
        </mxCell>
        <mxCell id="DOATOJcdpVP5VAB-xwLo-93" style="edgeStyle=orthogonalEdgeStyle;rounded=0;orthogonalLoop=1;jettySize=auto;html=1;exitX=0.5;exitY=1;exitDx=0;exitDy=0;entryX=0.5;entryY=0;entryDx=0;entryDy=0;" parent="qtLm0A7_fBKDtyC4aUwC-2" source="qtLm0A7_fBKDtyC4aUwC-10" target="DOATOJcdpVP5VAB-xwLo-92" edge="1">
          <mxGeometry relative="1" as="geometry" />
        </mxCell>
        <mxCell id="qtLm0A7_fBKDtyC4aUwC-10" value="" style="rhombus;whiteSpace=wrap;html=1;" parent="qtLm0A7_fBKDtyC4aUwC-2" vertex="1">
          <mxGeometry x="87.5" y="140" width="25" height="30" as="geometry" />
        </mxCell>
        <mxCell id="qtLm0A7_fBKDtyC4aUwC-19" value="Right credentials" style="text;html=1;strokeColor=none;fillColor=none;align=center;verticalAlign=middle;whiteSpace=wrap;rounded=0;" parent="qtLm0A7_fBKDtyC4aUwC-2" vertex="1">
          <mxGeometry x="105" y="180" width="60" height="30" as="geometry" />
        </mxCell>
        <mxCell id="DOATOJcdpVP5VAB-xwLo-92" value="Find branch map" style="rounded=1;whiteSpace=wrap;html=1;" parent="qtLm0A7_fBKDtyC4aUwC-2" vertex="1">
          <mxGeometry x="40" y="230" width="120" height="40" as="geometry" />
        </mxCell>
        <mxCell id="DOATOJcdpVP5VAB-xwLo-101" style="edgeStyle=orthogonalEdgeStyle;rounded=0;orthogonalLoop=1;jettySize=auto;html=1;exitX=0.25;exitY=1;exitDx=0;exitDy=0;entryX=0.5;entryY=0;entryDx=0;entryDy=0;" parent="qtLm0A7_fBKDtyC4aUwC-2" source="DOATOJcdpVP5VAB-xwLo-96" target="DOATOJcdpVP5VAB-xwLo-99" edge="1">
          <mxGeometry relative="1" as="geometry" />
        </mxCell>
        <mxCell id="DOATOJcdpVP5VAB-xwLo-103" style="edgeStyle=orthogonalEdgeStyle;rounded=0;orthogonalLoop=1;jettySize=auto;html=1;exitX=0.75;exitY=1;exitDx=0;exitDy=0;entryX=0.5;entryY=0;entryDx=0;entryDy=0;" parent="qtLm0A7_fBKDtyC4aUwC-2" source="DOATOJcdpVP5VAB-xwLo-96" target="DOATOJcdpVP5VAB-xwLo-100" edge="1">
          <mxGeometry relative="1" as="geometry" />
        </mxCell>
        <mxCell id="DOATOJcdpVP5VAB-xwLo-96" value="" style="rounded=0;whiteSpace=wrap;html=1;" parent="qtLm0A7_fBKDtyC4aUwC-2" vertex="1">
          <mxGeometry x="60" y="330" width="150" height="20" as="geometry" />
        </mxCell>
        <mxCell id="DOATOJcdpVP5VAB-xwLo-118" style="edgeStyle=orthogonalEdgeStyle;rounded=0;orthogonalLoop=1;jettySize=auto;html=1;exitX=0;exitY=0.5;exitDx=0;exitDy=0;" parent="qtLm0A7_fBKDtyC4aUwC-2" source="DOATOJcdpVP5VAB-xwLo-99" edge="1">
          <mxGeometry relative="1" as="geometry">
            <mxPoint x="-40" y="420.20000000000005" as="targetPoint" />
          </mxGeometry>
        </mxCell>
        <mxCell id="DOATOJcdpVP5VAB-xwLo-99" value="View all available cars" style="rounded=1;whiteSpace=wrap;html=1;" parent="qtLm0A7_fBKDtyC4aUwC-2" vertex="1">
          <mxGeometry x="22.5" y="400" width="90" height="40" as="geometry" />
        </mxCell>
        <mxCell id="DOATOJcdpVP5VAB-xwLo-105" style="edgeStyle=orthogonalEdgeStyle;rounded=0;orthogonalLoop=1;jettySize=auto;html=1;exitX=0.5;exitY=1;exitDx=0;exitDy=0;entryX=0.5;entryY=0;entryDx=0;entryDy=0;" parent="qtLm0A7_fBKDtyC4aUwC-2" source="DOATOJcdpVP5VAB-xwLo-100" target="DOATOJcdpVP5VAB-xwLo-104" edge="1">
          <mxGeometry relative="1" as="geometry" />
        </mxCell>
        <mxCell id="DOATOJcdpVP5VAB-xwLo-100" value="View all reservations" style="rounded=1;whiteSpace=wrap;html=1;" parent="qtLm0A7_fBKDtyC4aUwC-2" vertex="1">
          <mxGeometry x="155" y="400" width="90" height="40" as="geometry" />
        </mxCell>
        <mxCell id="DOATOJcdpVP5VAB-xwLo-106" style="edgeStyle=orthogonalEdgeStyle;rounded=0;orthogonalLoop=1;jettySize=auto;html=1;exitX=0;exitY=0.5;exitDx=0;exitDy=0;entryX=1;entryY=0.5;entryDx=0;entryDy=0;" parent="qtLm0A7_fBKDtyC4aUwC-2" source="DOATOJcdpVP5VAB-xwLo-104" target="DOATOJcdpVP5VAB-xwLo-99" edge="1">
          <mxGeometry relative="1" as="geometry" />
        </mxCell>
        <mxCell id="DOATOJcdpVP5VAB-xwLo-110" style="edgeStyle=orthogonalEdgeStyle;rounded=0;orthogonalLoop=1;jettySize=auto;html=1;exitX=0.5;exitY=1;exitDx=0;exitDy=0;entryX=0.5;entryY=0;entryDx=0;entryDy=0;" parent="qtLm0A7_fBKDtyC4aUwC-2" source="DOATOJcdpVP5VAB-xwLo-104" target="DOATOJcdpVP5VAB-xwLo-109" edge="1">
          <mxGeometry relative="1" as="geometry" />
        </mxCell>
        <mxCell id="DOATOJcdpVP5VAB-xwLo-104" value="" style="rhombus;whiteSpace=wrap;html=1;" parent="qtLm0A7_fBKDtyC4aUwC-2" vertex="1">
          <mxGeometry x="187.5" y="455" width="25" height="30" as="geometry" />
        </mxCell>
        <mxCell id="DOATOJcdpVP5VAB-xwLo-107" value="No reservations" style="text;html=1;strokeColor=none;fillColor=none;align=center;verticalAlign=middle;whiteSpace=wrap;rounded=0;" parent="qtLm0A7_fBKDtyC4aUwC-2" vertex="1">
          <mxGeometry x="133" y="440" width="60" height="30" as="geometry" />
        </mxCell>
        <mxCell id="DOATOJcdpVP5VAB-xwLo-131" style="edgeStyle=orthogonalEdgeStyle;rounded=0;orthogonalLoop=1;jettySize=auto;html=1;exitX=0.5;exitY=1;exitDx=0;exitDy=0;entryX=0.5;entryY=0;entryDx=0;entryDy=0;" parent="qtLm0A7_fBKDtyC4aUwC-2" source="DOATOJcdpVP5VAB-xwLo-109" target="DOATOJcdpVP5VAB-xwLo-130" edge="1">
          <mxGeometry relative="1" as="geometry" />
        </mxCell>
        <mxCell id="DOATOJcdpVP5VAB-xwLo-109" value="Confirm button" style="rounded=1;whiteSpace=wrap;html=1;" parent="qtLm0A7_fBKDtyC4aUwC-2" vertex="1">
          <mxGeometry x="155" y="510" width="90" height="30" as="geometry" />
        </mxCell>
        <mxCell id="DOATOJcdpVP5VAB-xwLo-116" style="edgeStyle=orthogonalEdgeStyle;rounded=0;orthogonalLoop=1;jettySize=auto;html=1;exitX=0.5;exitY=1;exitDx=0;exitDy=0;entryX=0.5;entryY=0;entryDx=0;entryDy=0;" parent="qtLm0A7_fBKDtyC4aUwC-2" source="DOATOJcdpVP5VAB-xwLo-112" target="DOATOJcdpVP5VAB-xwLo-115" edge="1">
          <mxGeometry relative="1" as="geometry" />
        </mxCell>
        <mxCell id="DOATOJcdpVP5VAB-xwLo-112" value="Reserve button" style="rounded=1;whiteSpace=wrap;html=1;" parent="qtLm0A7_fBKDtyC4aUwC-2" vertex="1">
          <mxGeometry x="22.5" y="510" width="90" height="30" as="geometry" />
        </mxCell>
        <mxCell id="DOATOJcdpVP5VAB-xwLo-122" style="edgeStyle=orthogonalEdgeStyle;rounded=0;orthogonalLoop=1;jettySize=auto;html=1;exitX=0.5;exitY=1;exitDx=0;exitDy=0;entryX=0.5;entryY=0;entryDx=0;entryDy=0;" parent="qtLm0A7_fBKDtyC4aUwC-2" source="DOATOJcdpVP5VAB-xwLo-115" target="DOATOJcdpVP5VAB-xwLo-120" edge="1">
          <mxGeometry relative="1" as="geometry" />
        </mxCell>
        <mxCell id="DOATOJcdpVP5VAB-xwLo-115" value="Form" style="rounded=1;whiteSpace=wrap;html=1;" parent="qtLm0A7_fBKDtyC4aUwC-2" vertex="1">
          <mxGeometry x="45" y="570" width="47.5" height="30" as="geometry" />
        </mxCell>
        <mxCell id="DOATOJcdpVP5VAB-xwLo-123" style="edgeStyle=orthogonalEdgeStyle;rounded=0;orthogonalLoop=1;jettySize=auto;html=1;exitX=0;exitY=0.5;exitDx=0;exitDy=0;entryX=0;entryY=0.5;entryDx=0;entryDy=0;" parent="qtLm0A7_fBKDtyC4aUwC-2" source="DOATOJcdpVP5VAB-xwLo-120" target="DOATOJcdpVP5VAB-xwLo-115" edge="1">
          <mxGeometry relative="1" as="geometry" />
        </mxCell>
        <mxCell id="DOATOJcdpVP5VAB-xwLo-128" style="edgeStyle=orthogonalEdgeStyle;rounded=0;orthogonalLoop=1;jettySize=auto;html=1;exitX=0.5;exitY=1;exitDx=0;exitDy=0;entryX=0.5;entryY=0;entryDx=0;entryDy=0;" parent="qtLm0A7_fBKDtyC4aUwC-2" source="DOATOJcdpVP5VAB-xwLo-120" target="DOATOJcdpVP5VAB-xwLo-127" edge="1">
          <mxGeometry relative="1" as="geometry" />
        </mxCell>
        <mxCell id="DOATOJcdpVP5VAB-xwLo-120" value="" style="rhombus;whiteSpace=wrap;html=1;" parent="qtLm0A7_fBKDtyC4aUwC-2" vertex="1">
          <mxGeometry x="56.25" y="620" width="25" height="30" as="geometry" />
        </mxCell>
        <mxCell id="DOATOJcdpVP5VAB-xwLo-124" value="Valid" style="text;html=1;strokeColor=none;fillColor=none;align=center;verticalAlign=middle;whiteSpace=wrap;rounded=0;" parent="qtLm0A7_fBKDtyC4aUwC-2" vertex="1">
          <mxGeometry x="65" y="600" width="60" height="30" as="geometry" />
        </mxCell>
        <mxCell id="DOATOJcdpVP5VAB-xwLo-129" style="edgeStyle=orthogonalEdgeStyle;rounded=0;orthogonalLoop=1;jettySize=auto;html=1;exitX=1;exitY=0.5;exitDx=0;exitDy=0;entryX=0.5;entryY=1;entryDx=0;entryDy=0;" parent="qtLm0A7_fBKDtyC4aUwC-2" source="DOATOJcdpVP5VAB-xwLo-127" target="DOATOJcdpVP5VAB-xwLo-96" edge="1">
          <mxGeometry relative="1" as="geometry" />
        </mxCell>
        <mxCell id="DOATOJcdpVP5VAB-xwLo-127" value="Reservation detail page" style="rounded=1;whiteSpace=wrap;html=1;" parent="qtLm0A7_fBKDtyC4aUwC-2" vertex="1">
          <mxGeometry x="23.75" y="670" width="90" height="30" as="geometry" />
        </mxCell>
        <mxCell id="DOATOJcdpVP5VAB-xwLo-135" style="edgeStyle=orthogonalEdgeStyle;rounded=0;orthogonalLoop=1;jettySize=auto;html=1;exitX=0.5;exitY=1;exitDx=0;exitDy=0;entryX=0.5;entryY=0;entryDx=0;entryDy=0;" parent="qtLm0A7_fBKDtyC4aUwC-2" source="DOATOJcdpVP5VAB-xwLo-130" target="DOATOJcdpVP5VAB-xwLo-133" edge="1">
          <mxGeometry relative="1" as="geometry" />
        </mxCell>
        <mxCell id="DOATOJcdpVP5VAB-xwLo-130" value="Payment info page" style="rounded=1;whiteSpace=wrap;html=1;" parent="qtLm0A7_fBKDtyC4aUwC-2" vertex="1">
          <mxGeometry x="155" y="560" width="90" height="30" as="geometry" />
        </mxCell>
        <mxCell id="DOATOJcdpVP5VAB-xwLo-137" style="edgeStyle=orthogonalEdgeStyle;rounded=0;orthogonalLoop=1;jettySize=auto;html=1;exitX=0.5;exitY=1;exitDx=0;exitDy=0;entryX=0.5;entryY=0;entryDx=0;entryDy=0;" parent="qtLm0A7_fBKDtyC4aUwC-2" source="DOATOJcdpVP5VAB-xwLo-133" target="DOATOJcdpVP5VAB-xwLo-136" edge="1">
          <mxGeometry relative="1" as="geometry" />
        </mxCell>
        <mxCell id="DOATOJcdpVP5VAB-xwLo-133" value="Form" style="rounded=1;whiteSpace=wrap;html=1;" parent="qtLm0A7_fBKDtyC4aUwC-2" vertex="1">
          <mxGeometry x="176.25" y="610" width="47.5" height="30" as="geometry" />
        </mxCell>
        <mxCell id="DOATOJcdpVP5VAB-xwLo-138" style="edgeStyle=orthogonalEdgeStyle;rounded=0;orthogonalLoop=1;jettySize=auto;html=1;exitX=0;exitY=0.5;exitDx=0;exitDy=0;entryX=0;entryY=0.5;entryDx=0;entryDy=0;" parent="qtLm0A7_fBKDtyC4aUwC-2" source="DOATOJcdpVP5VAB-xwLo-136" target="DOATOJcdpVP5VAB-xwLo-133" edge="1">
          <mxGeometry relative="1" as="geometry" />
        </mxCell>
        <mxCell id="DOATOJcdpVP5VAB-xwLo-136" value="" style="rhombus;whiteSpace=wrap;html=1;" parent="qtLm0A7_fBKDtyC4aUwC-2" vertex="1">
          <mxGeometry x="187.5" y="660" width="25" height="30" as="geometry" />
        </mxCell>
        <mxCell id="qtLm0A7_fBKDtyC4aUwC-3" value="Database" style="swimlane;whiteSpace=wrap;html=1;" parent="1" vertex="1">
          <mxGeometry x="600" y="80" width="180" height="810" as="geometry" />
        </mxCell>
        <mxCell id="DOATOJcdpVP5VAB-xwLo-89" value="Verify credentials" style="rounded=1;whiteSpace=wrap;html=1;" parent="qtLm0A7_fBKDtyC4aUwC-3" vertex="1">
          <mxGeometry x="40" y="135" width="120" height="40" as="geometry" />
        </mxCell>
        <mxCell id="DOATOJcdpVP5VAB-xwLo-94" value="Detect nearest branch" style="rounded=1;whiteSpace=wrap;html=1;" parent="qtLm0A7_fBKDtyC4aUwC-3" vertex="1">
          <mxGeometry x="40" y="230" width="120" height="40" as="geometry" />
        </mxCell>
        <mxCell id="DOATOJcdpVP5VAB-xwLo-140" value="Modify/add reservation" style="rounded=1;whiteSpace=wrap;html=1;" parent="qtLm0A7_fBKDtyC4aUwC-3" vertex="1">
          <mxGeometry x="50" y="605" width="80" height="40" as="geometry" />
        </mxCell>
        <mxCell id="qtLm0A7_fBKDtyC4aUwC-9" value="" style="endArrow=classic;html=1;rounded=0;exitX=1;exitY=0.5;exitDx=0;exitDy=0;entryX=0;entryY=0.5;entryDx=0;entryDy=0;" parent="1" source="qtLm0A7_fBKDtyC4aUwC-6" target="qtLm0A7_fBKDtyC4aUwC-7" edge="1">
          <mxGeometry width="50" height="50" relative="1" as="geometry">
            <mxPoint x="165" y="170" as="sourcePoint" />
            <mxPoint x="190" y="170" as="targetPoint" />
          </mxGeometry>
        </mxCell>
        <mxCell id="DOATOJcdpVP5VAB-xwLo-87" style="edgeStyle=orthogonalEdgeStyle;rounded=0;orthogonalLoop=1;jettySize=auto;html=1;exitX=0;exitY=0.5;exitDx=0;exitDy=0;entryX=0.5;entryY=1;entryDx=0;entryDy=0;" parent="1" source="qtLm0A7_fBKDtyC4aUwC-10" target="qtLm0A7_fBKDtyC4aUwC-6" edge="1">
          <mxGeometry relative="1" as="geometry" />
        </mxCell>
        <mxCell id="DOATOJcdpVP5VAB-xwLo-90" style="edgeStyle=orthogonalEdgeStyle;rounded=0;orthogonalLoop=1;jettySize=auto;html=1;exitX=1;exitY=0.5;exitDx=0;exitDy=0;entryX=0.5;entryY=0;entryDx=0;entryDy=0;" parent="1" source="qtLm0A7_fBKDtyC4aUwC-7" target="DOATOJcdpVP5VAB-xwLo-89" edge="1">
          <mxGeometry relative="1" as="geometry" />
        </mxCell>
        <mxCell id="DOATOJcdpVP5VAB-xwLo-91" style="edgeStyle=orthogonalEdgeStyle;rounded=0;orthogonalLoop=1;jettySize=auto;html=1;exitX=0;exitY=0.5;exitDx=0;exitDy=0;entryX=1;entryY=0.5;entryDx=0;entryDy=0;" parent="1" source="DOATOJcdpVP5VAB-xwLo-89" target="qtLm0A7_fBKDtyC4aUwC-10" edge="1">
          <mxGeometry relative="1" as="geometry" />
        </mxCell>
        <mxCell id="DOATOJcdpVP5VAB-xwLo-95" style="edgeStyle=orthogonalEdgeStyle;rounded=0;orthogonalLoop=1;jettySize=auto;html=1;exitX=1;exitY=0.5;exitDx=0;exitDy=0;entryX=0;entryY=0.5;entryDx=0;entryDy=0;" parent="1" source="DOATOJcdpVP5VAB-xwLo-92" target="DOATOJcdpVP5VAB-xwLo-94" edge="1">
          <mxGeometry relative="1" as="geometry" />
        </mxCell>
        <mxCell id="DOATOJcdpVP5VAB-xwLo-98" style="edgeStyle=orthogonalEdgeStyle;rounded=0;orthogonalLoop=1;jettySize=auto;html=1;exitX=0.5;exitY=1;exitDx=0;exitDy=0;entryX=0.5;entryY=0;entryDx=0;entryDy=0;" parent="1" source="DOATOJcdpVP5VAB-xwLo-94" target="DOATOJcdpVP5VAB-xwLo-96" edge="1">
          <mxGeometry relative="1" as="geometry" />
        </mxCell>
        <mxCell id="DOATOJcdpVP5VAB-xwLo-111" value="Confirm reservation" style="text;html=1;strokeColor=none;fillColor=none;align=center;verticalAlign=middle;whiteSpace=wrap;rounded=0;" parent="1" vertex="1">
          <mxGeometry x="520" y="552" width="60" height="30" as="geometry" />
        </mxCell>
        <mxCell id="DOATOJcdpVP5VAB-xwLo-119" style="edgeStyle=orthogonalEdgeStyle;rounded=0;orthogonalLoop=1;jettySize=auto;html=1;exitX=0.5;exitY=1;exitDx=0;exitDy=0;entryX=0.5;entryY=0;entryDx=0;entryDy=0;" parent="1" source="DOATOJcdpVP5VAB-xwLo-117" target="DOATOJcdpVP5VAB-xwLo-112" edge="1">
          <mxGeometry relative="1" as="geometry" />
        </mxCell>
        <mxCell id="DOATOJcdpVP5VAB-xwLo-125" value="Invalid" style="text;html=1;strokeColor=none;fillColor=none;align=center;verticalAlign=middle;whiteSpace=wrap;rounded=0;" parent="1" vertex="1">
          <mxGeometry x="275" y="680" width="60" height="30" as="geometry" />
        </mxCell>
        <mxCell id="DOATOJcdpVP5VAB-xwLo-139" value="Invalid" style="text;html=1;strokeColor=none;fillColor=none;align=center;verticalAlign=middle;whiteSpace=wrap;rounded=0;" parent="1" vertex="1">
          <mxGeometry x="437" y="722" width="60" height="30" as="geometry" />
        </mxCell>
        <mxCell id="DOATOJcdpVP5VAB-xwLo-141" style="edgeStyle=orthogonalEdgeStyle;rounded=0;orthogonalLoop=1;jettySize=auto;html=1;exitX=1;exitY=0.5;exitDx=0;exitDy=0;" parent="1" source="DOATOJcdpVP5VAB-xwLo-133" target="DOATOJcdpVP5VAB-xwLo-140" edge="1">
          <mxGeometry relative="1" as="geometry" />
        </mxCell>
        <mxCell id="DOATOJcdpVP5VAB-xwLo-142" value="Valid" style="text;html=1;strokeColor=none;fillColor=none;align=center;verticalAlign=middle;whiteSpace=wrap;rounded=0;" parent="1" vertex="1">
          <mxGeometry x="554" y="680" width="60" height="30" as="geometry" />
        </mxCell>
        <mxCell id="DOATOJcdpVP5VAB-xwLo-145" style="edgeStyle=orthogonalEdgeStyle;rounded=0;orthogonalLoop=1;jettySize=auto;html=1;exitX=0.5;exitY=1;exitDx=0;exitDy=0;entryX=1;entryY=0.5;entryDx=0;entryDy=0;" parent="1" source="DOATOJcdpVP5VAB-xwLo-140" target="DOATOJcdpVP5VAB-xwLo-144" edge="1">
          <mxGeometry relative="1" as="geometry" />
        </mxCell>
      </root>
    </mxGraphModel>
  </diagram>
</mxfile>
